<svg xmlns="http://www.w3.org/2000/svg" width="319.55" height="71.049" viewBox="0 0 319.55 71.049">
  <g id="Group_7061" data-name="Group 7061" transform="translate(-9.258 -18.086)">
    <g id="Group_7059" data-name="Group 7059" transform="translate(88.385 36.492)">
      <path id="Path_31191" data-name="Path 31191" d="M93.72,60.955l2.294-1.376q2.43,4.467,5.6,4.464a5.354,5.354,0,0,0,2.554-.634,4.427,4.427,0,0,0,2.443-3.964,4.565,4.565,0,0,0-.921-2.661,21.818,21.818,0,0,0-4.631-4.339,23.527,23.527,0,0,1-4.2-3.69,6.746,6.746,0,0,1-1.437-4.136,6.306,6.306,0,0,1,.845-3.211,6.019,6.019,0,0,1,2.383-2.287,6.84,6.84,0,0,1,3.333-.833,7.1,7.1,0,0,1,3.572.942,12.306,12.306,0,0,1,3.522,3.482l-2.205,1.674a10.691,10.691,0,0,0-2.6-2.668,4.471,4.471,0,0,0-2.345-.64,3.7,3.7,0,0,0-2.67.99,3.224,3.224,0,0,0-1.039,2.444,4.136,4.136,0,0,0,.369,1.709,6.166,6.166,0,0,0,1.339,1.8q.533.517,3.489,2.7a19.6,19.6,0,0,1,4.815,4.61,7.435,7.435,0,0,1,1.305,4.061A6.879,6.879,0,0,1,107.3,64.5a7.5,7.5,0,0,1-5.426,2.166,7.964,7.964,0,0,1-4.465-1.311A12.038,12.038,0,0,1,93.72,60.955Z" transform="translate(-93.72 -37.768)" fill="#004485"/>
      <path id="Path_31192" data-name="Path 31192" d="M118.407,38.6h2.573v7.421h4.077v2.226H120.98V66.007h-2.573V48.244H114.9V46.018h3.509Z" transform="translate(-95.058 -37.788)" fill="#004485"/>
      <path id="Path_31193" data-name="Path 31193" d="M129.518,63.537a2.278,2.278,0,0,1,0,4.557,2.157,2.157,0,0,1-1.6-.666,2.278,2.278,0,0,1,1.6-3.891Z" transform="translate(-95.838 -39.363)" fill="#004485"/>
      <path id="Path_31194" data-name="Path 31194" d="M168.8,43.976l-2.129,1.635a11.679,11.679,0,0,0-4.231-3.478A12.352,12.352,0,0,0,157,40.945a12.046,12.046,0,0,0-5.989,1.552,11.159,11.159,0,0,0-4.271,4.173,11.553,11.553,0,0,0-1.52,5.885,11.043,11.043,0,0,0,3.4,8.253,11.746,11.746,0,0,0,8.547,3.307,12,12,0,0,0,9.5-4.449l2.129,1.624a13.589,13.589,0,0,1-5.039,3.969A15.8,15.8,0,0,1,157,66.665q-7.088,0-11.189-4.723a14.2,14.2,0,0,1-3.434-9.621,13.394,13.394,0,0,1,4.16-9.989,14.352,14.352,0,0,1,10.427-4.044,15.311,15.311,0,0,1,6.833,1.493A13.3,13.3,0,0,1,168.8,43.976Z" transform="translate(-96.793 -37.768)" fill="#004485"/>
      <path id="Path_31195" data-name="Path 31195" d="M195.766,46.483V66.473h-2.532V63.038A10.972,10.972,0,0,1,189.6,66a10.146,10.146,0,0,1-11.645-2.087,10.316,10.316,0,0,1-3.006-7.483,10.146,10.146,0,0,1,3.032-7.39,9.9,9.9,0,0,1,7.3-3.066,9.421,9.421,0,0,1,4.451,1.048,10.007,10.007,0,0,1,3.5,3.146V46.483Zm-10.278,1.964a7.77,7.77,0,0,0-6.852,4.019,8.068,8.068,0,0,0,.012,8.08,7.922,7.922,0,0,0,2.9,3,7.656,7.656,0,0,0,3.918,1.07,8.044,8.044,0,0,0,4-1.061,7.519,7.519,0,0,0,2.908-2.885,8.232,8.232,0,0,0,1.018-4.088,7.955,7.955,0,0,0-2.285-5.8A7.574,7.574,0,0,0,185.488,48.447Z" transform="translate(-98.85 -38.253)" fill="#004485"/>
      <path id="Path_31196" data-name="Path 31196" d="M205.5,38.6h2.576v7.421h4.075v2.226h-4.075V66.007H205.5V48.244h-3.511V46.018H205.5Z" transform="translate(-100.558 -37.788)" fill="#004485"/>
      <path id="Path_31197" data-name="Path 31197" d="M216.958,38.288h2.571V49.582a10.951,10.951,0,0,1,3.44-3.077,8.363,8.363,0,0,1,4.058-1.02A7.085,7.085,0,0,1,231,46.624a6.764,6.764,0,0,1,2.563,3.062,16.2,16.2,0,0,1,.827,6.015V65.988h-2.569V56.451a24.707,24.707,0,0,0-.275-4.606,5.241,5.241,0,0,0-1.738-2.989,5.161,5.161,0,0,0-3.3-1,6.363,6.363,0,0,0-4.179,1.54,7.228,7.228,0,0,0-2.437,3.821,26.371,26.371,0,0,0-.368,5.438v7.331h-2.571Z" transform="translate(-101.504 -37.768)" fill="#004485"/>
      <path id="Path_31198" data-name="Path 31198" d="M261.307,46.483V66.473h-2.532V63.038A11.053,11.053,0,0,1,255.146,66,10.155,10.155,0,0,1,243.5,63.909a10.3,10.3,0,0,1-3-7.483,10.13,10.13,0,0,1,3.03-7.39,9.9,9.9,0,0,1,7.3-3.066,9.417,9.417,0,0,1,4.452,1.048,10.058,10.058,0,0,1,3.5,3.146V46.483Zm-10.28,1.964a7.77,7.77,0,0,0-6.852,4.019,8.108,8.108,0,0,0,.011,8.08,7.936,7.936,0,0,0,2.905,3,7.654,7.654,0,0,0,3.922,1.07,8.034,8.034,0,0,0,4-1.061,7.487,7.487,0,0,0,2.908-2.885,8.211,8.211,0,0,0,1.017-4.088,7.946,7.946,0,0,0-2.284-5.8A7.567,7.567,0,0,0,251.027,48.447Z" transform="translate(-102.99 -38.253)" fill="#004485"/>
      <path id="Path_31199" data-name="Path 31199" d="M267.847,46.483h2.627v2.925a9.273,9.273,0,0,1,2.48-2.585,4.885,4.885,0,0,1,2.719-.853,4.7,4.7,0,0,1,2.278.681l-1.343,2.17a3.565,3.565,0,0,0-1.356-.351,3.712,3.712,0,0,0-2.482,1.057,6.628,6.628,0,0,0-1.817,3.28,31.234,31.234,0,0,0-.48,6.9v6.76l-2.627,0Z" transform="translate(-104.718 -38.253)" fill="#004485"/>
      <path id="Path_31200" data-name="Path 31200" d="M281.777,37.733a2.127,2.127,0,0,1,2.123,2.131,2.027,2.027,0,0,1-.621,1.489,2.05,2.05,0,0,1-1.5.625,2.136,2.136,0,0,1-2.1-2.114,2.135,2.135,0,0,1,2.1-2.131Zm-1.277,8.23h2.573V65.951H280.5Z" transform="translate(-105.465 -37.733)" fill="#004485"/>
      <path id="Path_31201" data-name="Path 31201" d="M289.007,46.483h2.573v3.583A10.73,10.73,0,0,1,295,46.99a8.381,8.381,0,0,1,4.077-1.02,7.11,7.11,0,0,1,3.98,1.139,6.786,6.786,0,0,1,2.559,3.068,16.137,16.137,0,0,1,.829,6.008V66.471h-2.574V56.936a23.525,23.525,0,0,0-.284-4.606,5.067,5.067,0,0,0-1.716-2.989,5.186,5.186,0,0,0-3.306-1,6.354,6.354,0,0,0-4.181,1.54,7.249,7.249,0,0,0-2.436,3.821,26.661,26.661,0,0,0-.365,5.438v7.329h-2.573Z" transform="translate(-106.054 -38.253)" fill="#004485"/>
      <path id="Path_31202" data-name="Path 31202" d="M330.262,59.844l2.172,1.136a11.856,11.856,0,0,1-2.467,3.383,9.807,9.807,0,0,1-3.141,1.955,11.028,11.028,0,0,1-3.954.669,9.563,9.563,0,0,1-7.65-3.206,10.812,10.812,0,0,1-2.757-7.246,10.7,10.7,0,0,1,2.329-6.781,9.562,9.562,0,0,1,7.93-3.784,9.852,9.852,0,0,1,8.161,3.877,10.8,10.8,0,0,1,2.21,6.834H315.106a8.145,8.145,0,0,0,2.225,5.708,7.1,7.1,0,0,0,5.321,2.228,8.563,8.563,0,0,0,2.97-.527,7.846,7.846,0,0,0,2.454-1.416A11.878,11.878,0,0,0,330.262,59.844Zm0-5.383a8.445,8.445,0,0,0-1.5-3.29,7.1,7.1,0,0,0-2.6-1.986,7.942,7.942,0,0,0-3.4-.75,7.32,7.32,0,0,0-5.057,1.893,8.485,8.485,0,0,0-2.338,4.133Z" transform="translate(-107.536 -38.253)" fill="#004485"/>
      <path id="Path_31203" data-name="Path 31203" d="M349.52,48.672l-1.649,1.709a5.948,5.948,0,0,0-4.032-2,3.03,3.03,0,0,0-2.148.833,2.534,2.534,0,0,0-.893,1.924,2.861,2.861,0,0,0,.739,1.856,10.267,10.267,0,0,0,3.09,2.114,11.506,11.506,0,0,1,3.9,2.863,5.22,5.22,0,0,1,1.016,3.14,5.659,5.659,0,0,1-1.732,4.175,5.9,5.9,0,0,1-4.327,1.707,7.545,7.545,0,0,1-3.3-.752,7.265,7.265,0,0,1-2.6-2.071l1.621-1.839a5.629,5.629,0,0,0,4.177,2.223,3.762,3.762,0,0,0,2.632-1,3.056,3.056,0,0,0,1.085-2.335,2.991,2.991,0,0,0-.714-1.963,11.62,11.62,0,0,0-3.241-2.131,10.416,10.416,0,0,1-3.684-2.754,5.187,5.187,0,0,1-.977-3.1,5.086,5.086,0,0,1,1.553-3.788,5.425,5.425,0,0,1,3.932-1.507Q346.728,45.97,349.52,48.672Z" transform="translate(-109.122 -38.253)" fill="#004485"/>
    </g>
    <g id="Group_7060" data-name="Group 7060" transform="translate(9.258 18.086)">
      <path id="Path_31204" data-name="Path 31204" d="M51.159,18.143h5.314l-21.6,23.365L57.341,65.664,35.711,89.138H30.823L52.134,65.785l-22.352-24.4Z" transform="translate(-10.555 -18.089)" fill="#004485"/>
      <path id="Path_31205" data-name="Path 31205" d="M44.4,18.143h5.314l-21.6,23.365L50.585,65.664,28.954,89.138H24.068l21.31-23.353-22.352-24.4Z" transform="translate(-10.128 -18.089)" fill="#004485"/>
      <path id="Path_31206" data-name="Path 31206" d="M37.534,18.143h5.314l-21.6,23.365L43.716,65.664,22.084,89.138H17.2l21.31-23.353-22.352-24.4Z" transform="translate(-9.694 -18.089)" fill="#004485"/>
      <path id="Path_31207" data-name="Path 31207" d="M30.636,18.085H35.95l-21.6,23.366L36.818,65.608,15.186,89.081H10.3L31.611,65.726,9.258,41.332Z" transform="translate(-9.258 -18.085)" fill="#004485"/>
    </g>
    <path id="Path_31208" data-name="Path 31208" d="M57.725,18.2H82.963L61.331,41.833,83.442,65.387H58.848L36.5,41.833Z" transform="translate(-1.72 -0.007)" fill="#437736"/>
  </g>
</svg>
